HIERARCHY
ROOT root
{
	OFFSET	0	13.1	24.9
	CHANNELS 6  Xposition Yposition Zposition Xrotation Yrotation Zrotation
	JOINT spine_1
	{
		OFFSET	0	9.99999	0
		CHANNELS 3  Xrotation Yrotation Zrotation
		JOINT spine_2
		{
			OFFSET	0	112	-10
			CHANNELS 3  Xrotation Yrotation Zrotation
			JOINT spine_3
			{
				OFFSET	0	206.5	19.3
				CHANNELS 3  Xrotation Yrotation Zrotation
				JOINT spine_4
				{
					OFFSET	0	110.4	14.6
					CHANNELS 3  Xrotation Yrotation Zrotation
					JOINT neck_1
					{
						OFFSET	0	71.8	-50.3
						CHANNELS 3  Xrotation Yrotation Zrotation
						JOINT neck_2
						{
							OFFSET	0	86.2	-25.8
							CHANNELS 3  Xrotation Yrotation Zrotation
							JOINT head_ee
							{
								OFFSET	0	179.8	-8.7
								CHANNELS 3  Xrotation Yrotation Zrotation
								End Site
								{
									OFFSET	1	0	0
								}
							}
						}
					}
					JOINT left_clavicle
					{
						OFFSET	-43.2	22.4	-70.8
						CHANNELS 3  Xrotation Yrotation Zrotation
						JOINT left_shoulder
						{
							OFFSET	-93.9	-5.79999	48.7
							CHANNELS 3  Xrotation Yrotation Zrotation
							JOINT left_elbow
							{
								OFFSET	-291.4	-30.8	15.2
								CHANNELS 3  Xrotation Yrotation Zrotation
								JOINT left_lowarm_twist
								{
									OFFSET	-110.7	-3.89999	13.6
									CHANNELS 3  Xrotation Yrotation Zrotation
									JOINT left_hand
									{
										OFFSET	-110.7	-3.89999	13.6
										CHANNELS 3  Xrotation Yrotation Zrotation
										JOINT left_ee
										{
											OFFSET	-80.8	-5.10001	12.1
											CHANNELS 3  Xrotation Yrotation Zrotation
											End Site
											{
												OFFSET	1	0	0
											}
										}
									}
								}
							}
						}
					}
					JOINT right_clavicle
					{
						OFFSET	43.2	22.4	-70.8
						CHANNELS 3  Xrotation Yrotation Zrotation
						JOINT right_shoulder
						{
							OFFSET	93.9	-5.79999	48.7
							CHANNELS 3  Xrotation Yrotation Zrotation
							JOINT right_elbow
							{
								OFFSET	291.4	-30.8	15.2
								CHANNELS 3  Xrotation Yrotation Zrotation
								JOINT right_lowarm_twist
								{
									OFFSET	110.7	-3.89999	13.6
									CHANNELS 3  Xrotation Yrotation Zrotation
									JOINT right_hand
									{
										OFFSET	110.7	-3.89999	13.6
										CHANNELS 3  Xrotation Yrotation Zrotation
										JOINT right_ee
										{
											OFFSET	80.8	-5.10001	12.1
											CHANNELS 3  Xrotation Yrotation Zrotation
											End Site
											{
												OFFSET	1	0	0
											}
										}
									}
								}
							}
						}
					}
				}
			}
		}
	}
	JOINT left_hip
	{
		OFFSET	-82.8	-127.5	0.300001
		CHANNELS 3  Xrotation Yrotation Zrotation
		JOINT left_knee
		{
			OFFSET	-28.2	-396.7	2.2
			CHANNELS 3  Xrotation Yrotation Zrotation
			JOINT left_ankle
			{
				OFFSET	-11.7	-411.3	35.4
				CHANNELS 3  Xrotation Yrotation Zrotation
				JOINT left_toes
				{
					OFFSET	0	-60	-88.6
					CHANNELS 3  Xrotation Yrotation Zrotation
					JOINT left_foot_ee
					{
						OFFSET	-22.5	-16.5	-42.2
						CHANNELS 3  Xrotation Yrotation Zrotation
						End Site
						{
							OFFSET	1	0	0
						}
					}
				}
			}
		}
	}
	JOINT right_hip
	{
		OFFSET	82.8	-127.5	0.300001
		CHANNELS 3  Xrotation Yrotation Zrotation
		JOINT right_knee
		{
			OFFSET	28.2	-396.7	2.2
			CHANNELS 3  Xrotation Yrotation Zrotation
			JOINT right_ankle
			{
				OFFSET	11.7	-411.3	35.4
				CHANNELS 3  Xrotation Yrotation Zrotation
				JOINT right_toes
				{
					OFFSET	0	-60	-88.6
					CHANNELS 3  Xrotation Yrotation Zrotation
					JOINT right_foot_ee
					{
						OFFSET	22.5	-16.5	-42.2
						CHANNELS 3  Xrotation Yrotation Zrotation
						End Site
						{
							OFFSET	1	0	0
						}
					}
				}
			}
		}
	}
}
MOTION
Frames: 10
Frame Time: 0.02
861.356198127 636.034 -1804.39413745 5.81672226185 13.1543690102 6.1225852473 0.0748914 0.239622 0.586376 0.0750601 0.201824 0.600435 0.0773097 0.0719752 0.629344 0.0767974 0.170463 0.610079 -11.2851 3.09217 2.1419 -11.2816 4.44456 2.90014 -0.0 0.0 -0.0 -5.81579 24.4677 -5.01433 3.36362 -13.8296 63.2008 2.59112 -52.0698 1.26589 8.77355 0.225505 -1.09696 -0.709566 -17.0333 -12.0551 -0.0 0.0 -0.0 9.11798 16.6303 -17.6581 -16.6463 19.4242 -71.8958 0.353161 9.92343 -0.0306599 11.4395 -0.260487 1.43566 1.2073 -25.7985 -17.2027 0.0 0.0 0.0 -0.432996 17.1798 -14.9569 -2.45731 0.093349 0.365534 21.9503 5.70454 -2.97022 5.70668 -0.0 -0.0 -0.0 0.0 -0.0 22.1692 23.2253 -14.991 -48.1467 1.06462 -7.09859 36.6366 -26.1851 4.86975 5.92925 -0.0 -0.0 0.0 0.0 0.0 
857.510099753 635.859 -1804.32134038 5.04417663873 12.0126951594 6.25461800108 0.17468 0.299425 0.649976 0.174878 0.25746 0.667711 0.178044 0.11358 0.706556 0.177417 0.22374 0.679752 -12.1693 2.76549 1.09285 -12.1773 4.54586 1.83344 -0.0 0.0 -0.0 -5.82338 23.9237 -5.18058 3.80139 -15.0963 62.9694 2.55297 -51.6573 1.23589 8.71254 0.22452 -1.08922 -0.927773 -16.7606 -13.4337 -0.0 0.0 -0.0 9.18287 16.6773 -17.7987 -15.8799 19.5487 -72.2508 0.27998 7.89639 -0.0193238 10.5517 -0.250588 1.32269 1.07162 -26.2507 -16.5368 0.0 0.0 0.0 0.367177 17.4156 -14.6142 -2.86398 0.10728 0.426391 19.5702 7.05901 -2.67728 4.75905 -0.0 -0.0 -0.0 0.0 -0.0 24.7852 20.2212 -17.0402 -44.8594 0.804501 -6.66474 35.3972 -22.8459 4.64596 3.36905 -0.0 -0.0 0.0 0.0 0.0 
849.344202228 631.923 -1806.17239247 3.52433236746 14.6696303258 6.36872392238 0.519306 0.303836 0.82188 0.519647 0.250924 0.839546 0.523526 0.0768613 0.872863 0.522527 0.213744 0.849772 -12.6163 2.20784 1.05448 -12.6206 3.52616 1.65155 -0.0 0.0 -0.0 -5.75607 22.9419 -5.36537 4.81922 -14.8713 62.9733 2.76664 -53.8736 1.40604 7.6596 0.206226 -0.955968 -0.273318 -23.5652 -11.8166 -0.0 0.0 -0.0 8.9574 17.1729 -17.272 -14.8071 19.7327 -73.2047 0.312914 8.81139 -0.0241088 12.897 -0.272938 1.62141 1.67643 -24.6987 -19.7103 0.0 0.0 0.0 1.49147 16.5565 -14.0679 -1.36196 0.0536781 0.202114 18.7929 5.99598 -2.58055 4.43668 -0.0 -0.0 -0.0 0.0 -0.0 25.1579 20.5853 -18.0803 -37.2623 0.301847 -5.61119 31.8206 -21.1752 4.22723 2.81381 -0.0 -0.0 0.0 0.0 0.0 
850.843364593 631.923 -1808.46861285 3.51355223376 13.9832223577 6.41228875348 0.519306 0.303836 0.82188 0.519647 0.250924 0.839546 0.523526 0.0768613 0.872863 0.522527 0.213744 0.849772 -12.6163 2.20784 1.05448 -12.6206 3.52616 1.65155 -0.0 0.0 -0.0 -5.75607 22.9419 -5.36537 4.81922 -14.8713 62.9733 2.76664 -53.8736 1.40604 7.6596 0.206226 -0.955968 -0.273318 -23.5652 -11.8166 -0.0 0.0 -0.0 8.9574 17.1729 -17.272 -14.8071 19.7327 -73.2047 0.312914 8.81139 -0.0241088 12.897 -0.272938 1.62141 1.67643 -24.6987 -19.7103 0.0 0.0 0.0 1.49147 16.5565 -14.0679 -1.36196 0.0536781 0.202114 18.7929 5.99598 -2.58055 4.43668 -0.0 -0.0 -0.0 0.0 -0.0 25.1579 20.5853 -18.0803 -37.2623 0.301847 -5.61119 31.8206 -21.1752 4.22723 2.81381 -0.0 -0.0 0.0 0.0 0.0 
848.619595896 630.199 -1811.79873818 3.23160966278 15.6462638663 5.60455781815 0.407935 0.265838 0.966441 0.408432 0.203805 0.981397 0.412187 0.000208113 1.00233 0.41082 0.158497 0.989724 -11.2037 4.42422 0.297988 -11.233 8.17029 1.47635 -0.0 0.0 -0.0 -5.99142 22.722 -5.76326 5.77558 -12.7855 63.65 2.77887 -53.9938 1.41592 5.50746 0.161231 -0.684749 -0.0132961 -21.236 -9.11659 -0.0 0.0 -0.0 8.98446 17.3793 -17.3192 -14.1567 19.8569 -74.4371 0.380071 10.6628 -0.0354684 14.1802 -0.279985 1.78514 1.22954 -25.0699 -17.1227 0.0 0.0 0.0 1.76467 17.348 -12.4603 -0.900366 0.0360249 0.133475 25.8347 13.0076 -3.44847 4.17415 -0.0 -0.0 -0.0 0.0 -0.0 23.0738 21.37 -17.1822 -26.9886 -0.14758 -4.10092 31.2994 -21.0764 4.16805 3.24128 -0.0 -0.0 0.0 0.0 0.0 
823.419683711 639.026 -1818.11954831 -0.196153474199 19.9887210804 6.5275394428 0.671769 0.28805 1.1678 0.672502 0.213161 1.18376 0.677218 -0.0261747 1.20251 0.675237 0.164054 1.19156 -5.8459 4.8221 1.44753 -5.83547 7.83623 2.35561 -0.0 0.0 -0.0 -6.54137 24.2953 -6.06557 5.03372 -12.9277 65.3502 2.98597 -55.9277 1.58551 -1.53477 -0.0565987 0.187813 1.03301 -22.1196 -2.58089 -0.0 0.0 -0.0 8.20402 18.8777 -15.5004 -15.3682 19.2676 -75.8046 0.617198 17.0007 -0.0922457 20.0093 -0.265807 2.52923 1.85328 -25.6801 -21.046 0.0 0.0 0.0 2.91778 19.384 -9.75787 3.96015 -0.183219 -0.579875 25.613 23.1986 -3.54869 4.6558 -0.0 -0.0 -0.0 0.0 -0.0 17.4183 25.6217 -14.4677 -0.0640312 -0.00263119 -0.0094739 37.0228 -15.5236 4.66366 2.02738 -0.0 -0.0 0.0 0.0 0.0 
817.797228727 637.244 -1822.28148569 -0.388276687999 22.066733678 6.71699473713 0.671081 0.257934 1.15884 0.67181 0.183677 1.1729 0.675865 -0.0529492 1.18601 0.673927 0.13501 1.17949 -5.37066 3.7116 -0.533035 -5.35925 7.23448 0.120559 -0.0 0.0 -0.0 -6.23001 23.8391 -5.77135 4.0454 -12.5523 65.7316 2.97318 -55.8136 1.57493 -3.7127 -0.145518 0.451622 1.47448 -26.8113 -1.82966 -0.0 0.0 -0.0 8.17255 20.5637 -15.3039 -15.1608 19.7474 -76.5166 0.69677 19.0426 -0.116867 21.4499 -0.250645 2.7126 2.63529 -27.6944 -26.3289 0.0 0.0 0.0 2.95018 20.1498 -9.80115 3.89938 -0.180105 -0.571072 26.3722 23.6219 -3.64867 6.32969 -0.0 -0.0 -0.0 0.0 -0.0 14.6923 24.8172 -13.5385 4.58224 0.215634 0.669784 40.9325 -12.015 4.97611 2.19721 -0.0 -0.0 0.0 0.0 0.0 
818.132134288 637.244 -1822.81549366 -0.387901977344 21.9298005965 6.71599438517 0.671081 0.257934 1.15884 0.67181 0.183677 1.1729 0.675865 -0.0529492 1.18601 0.673927 0.13501 1.17949 -5.37066 3.7116 -0.533035 -5.35925 7.23448 0.120559 -0.0 0.0 -0.0 -6.23001 23.8391 -5.77135 4.0454 -12.5523 65.7316 2.97318 -55.8136 1.57493 -3.7127 -0.145518 0.451622 1.47448 -26.8113 -1.82966 -0.0 0.0 -0.0 8.17255 20.5637 -15.3039 -15.1608 19.7474 -76.5166 0.69677 19.0426 -0.116867 21.4499 -0.250645 2.7126 2.63529 -27.6944 -26.3289 0.0 0.0 0.0 2.95018 20.1498 -9.80115 3.89938 -0.180105 -0.571072 26.3722 23.6219 -3.64867 6.32969 -0.0 -0.0 -0.0 0.0 -0.0 14.6923 24.8172 -13.5385 4.58224 0.215634 0.669784 40.9325 -12.015 4.97611 2.19721 -0.0 -0.0 0.0 0.0 0.0 
818.695502597 637.244 -1823.70744225 -0.387281399432 21.7006220368 6.71432443697 0.671081 0.257934 1.15884 0.67181 0.183677 1.1729 0.675865 -0.0529492 1.18601 0.673927 0.13501 1.17949 -5.37066 3.7116 -0.533035 -5.35925 7.23448 0.120559 -0.0 0.0 -0.0 -6.23001 23.8391 -5.77135 4.0454 -12.5523 65.7316 2.97318 -55.8136 1.57493 -3.7127 -0.145518 0.451622 1.47448 -26.8113 -1.82966 -0.0 0.0 -0.0 8.17255 20.5637 -15.3039 -15.1608 19.7474 -76.5166 0.69677 19.0426 -0.116867 21.4499 -0.250645 2.7126 2.63529 -27.6944 -26.3289 0.0 0.0 0.0 2.95018 20.1498 -9.80115 3.89938 -0.180105 -0.571072 26.3722 23.6219 -3.64867 6.32969 -0.0 -0.0 -0.0 0.0 -0.0 14.6923 24.8172 -13.5385 4.58224 0.215634 0.669784 40.9325 -12.015 4.97611 2.19721 -0.0 -0.0 0.0 0.0 0.0 
820.080740255 637.244 -1825.86762029 -0.385805804444 21.1431505516 6.71028433131 0.671081 0.257934 1.15884 0.67181 0.183677 1.1729 0.675865 -0.0529492 1.18601 0.673927 0.13501 1.17949 -5.37066 3.7116 -0.533035 -5.35925 7.23448 0.120559 -0.0 0.0 -0.0 -6.23001 23.8391 -5.77135 4.0454 -12.5523 65.7316 2.97318 -55.8136 1.57493 -3.7127 -0.145518 0.451622 1.47448 -26.8113 -1.82966 -0.0 0.0 -0.0 8.17255 20.5637 -15.3039 -15.1608 19.7474 -76.5166 0.69677 19.0426 -0.116867 21.4499 -0.250645 2.7126 2.63529 -27.6944 -26.3289 0.0 0.0 0.0 2.95018 20.1498 -9.80115 3.89938 -0.180105 -0.571072 26.3722 23.6219 -3.64867 6.32969 -0.0 -0.0 -0.0 0.0 -0.0 14.6923 24.8172 -13.5385 4.58224 0.215634 0.669784 40.9325 -12.015 4.97611 2.19721 -0.0 -0.0 0.0 0.0 0.0 
